<svg viewBox="0 0 1200 800" width="100%" height="auto" xmlns="http://www.w3.org/2000/svg">
  <!-- Shot 4: Multi-Tier Stroke Hierarchy & Retracing -->
  <rect width="100%" height="100%" fill="#ffffff" />
  
  <!-- Outer Page Border (1.5px subtle) -->
  <path d="M 28 32 Q 600 24 1172 30 Q 1178 400 1170 770 Q 600 776 30 768 Q 24 400 28 32" 
        fill="none" stroke="#001858" stroke-width="1.5" opacity="0.35" stroke-linecap="round" />
  
  <!-- Header Banner (3.5px bold + 1.2px retrace) -->
  <path d="M 264 46 Q 600 38 934 44 Q 938 82 932 118 Q 600 126 258 116 Q 256 80 264 46 Z" 
        fill="#ffffff" stroke="#001858" stroke-width="3.5" stroke-linecap="round" stroke-linejoin="round" />
  <path d="M 262 48 Q 600 40 936 42 L 930 116 Q 600 124 256 114 Z" 
        fill="none" stroke="#001858" stroke-width="1.2" opacity="0.4" stroke-linecap="round" />
  <text x="600" y="88" font-family="'Caveat', cursive, sans-serif" font-size="32" font-weight="bold" text-anchor="middle" fill="#001858">HOW GIT WORKS UNDER THE HOOD</text>
  
  <!-- 1. References Box (3.5px bold) -->
  <path d="M 58 158 Q 170 150 282 160 Q 288 285 280 422 Q 168 430 56 418 Q 50 285 58 158 Z" 
        fill="#ffffff" stroke="#001858" stroke-width="3.5" stroke-linecap="round" stroke-linejoin="round" />
  <text x="170" y="196" font-family="'Caveat', cursive, sans-serif" font-size="24" font-weight="bold" text-anchor="middle" fill="#001858">1. References</text>
  <path d="M 80 218 Q 170 212 260 218 Q 264 246 258 274 Q 168 280 78 274 Q 76 246 80 218 Z" 
        fill="#ffffff" stroke="#001858" stroke-width="2.2" stroke-linecap="round" />
  <path d="M 80 320 Q 170 314 260 320 Q 264 348 258 376 Q 168 382 78 376 Q 76 348 80 320 Z" 
        fill="#ffffff" stroke="#001858" stroke-width="2.2" stroke-linecap="round" />
  
  <!-- 2. Commit Object (4.0px bold hero) -->
  <path d="M 338 158 Q 510 150 682 160 Q 688 285 680 422 Q 508 430 336 418 Q 330 285 338 158 Z" 
        fill="#ffffff" stroke="#001858" stroke-width="4.0" stroke-linecap="round" stroke-linejoin="round" />
  <path d="M 336 160 Q 510 152 684 158 Q 686 285 678 420 Q 508 428 334 416 Z" 
        fill="none" stroke="#001858" stroke-width="1.2" opacity="0.45" stroke-linecap="round" />
  <text x="510" y="196" font-family="'Caveat', cursive, sans-serif" font-size="26" font-weight="bold" text-anchor="middle" fill="#001858">2. Commit Object</text>
  <path d="M 360 262 Q 510 256 660 262 Q 664 320 658 382 Q 508 388 358 382 Z" 
        fill="#ffffff" stroke="#001858" stroke-width="1.8" stroke-linecap="round" stroke-linejoin="round" />
  
  <!-- 3. Tree Object (3.5px bold) -->
  <path d="M 758 158 Q 930 150 1102 160 Q 1108 270 1100 392 Q 928 400 756 388 Q 750 270 758 158 Z" 
        fill="#ffffff" stroke="#001858" stroke-width="3.5" stroke-linecap="round" stroke-linejoin="round" />
  <text x="930" y="196" font-family="'Caveat', cursive, sans-serif" font-size="24" font-weight="bold" text-anchor="middle" fill="#001858">3. Tree Object</text>
  <path d="M 780 262 Q 930 256 1080 262 Q 1084 315 1078 368 Q 928 374 778 368 Z" 
        fill="#ffffff" stroke="#001858" stroke-width="1.8" stroke-linecap="round" stroke-linejoin="round" />
  
  <!-- 4. Blob Objects (3.5px bold) -->
  <path d="M 758 438 Q 930 430 1102 440 Q 1108 550 1100 672 Q 928 680 756 668 Q 750 550 758 438 Z" 
        fill="#ffffff" stroke="#001858" stroke-width="3.5" stroke-linecap="round" stroke-linejoin="round" />
  <text x="930" y="476" font-family="'Caveat', cursive, sans-serif" font-size="24" font-weight="bold" text-anchor="middle" fill="#001858">4. Blob Objects</text>
  <path d="M 780 500 Q 920 494 1060 500 Q 1064 532 1058 564 Q 918 570 778 564 Z" 
        fill="#ffffff" stroke="#001858" stroke-width="1.8" stroke-linecap="round" />
  <path d="M 780 584 Q 920 578 1060 584 Q 1064 616 1058 648 Q 918 654 778 648 Z" 
        fill="#ffffff" stroke="#001858" stroke-width="1.8" stroke-linecap="round" />
  
  <!-- 5. Content-Addressable Storage (3.2px) -->
  <path d="M 58 468 Q 360 460 682 470 Q 688 565 680 672 Q 358 680 56 668 Q 50 565 58 468 Z" 
        fill="#ffffff" stroke="#001858" stroke-width="3.2" stroke-linecap="round" stroke-linejoin="round" />
  <text x="370" y="505" font-family="'Caveat', cursive, sans-serif" font-size="24" font-weight="bold" text-anchor="middle" fill="#001858">Content-Addressable Storage</text>
</svg>
